<svg width="200" height="200" viewBox="0 0 200 200" fill="none" xmlns="http://www.w3.org/2000/svg">
<g clip-path="url(#clip0_4_155)">
<mask id="path-1-inside-1_4_155" fill="white">
<rect x="24" y="86" width="152" height="90" rx="4"/>
</mask>
<rect x="24" y="86" width="152" height="90" rx="4" stroke="#FF4000" stroke-width="16" mask="url(#path-1-inside-1_4_155)"/>
<mask id="path-2-inside-2_4_155" fill="white">
<path d="M0 4C0 1.79086 1.79086 0 4 0H196C198.209 0 200 1.79086 200 4V180C200 191.046 191.046 200 180 200H20C8.95431 200 0 191.046 0 180V4Z"/>
</mask>
<path d="M0 4C0 1.79086 1.79086 0 4 0H196C198.209 0 200 1.79086 200 4V180C200 191.046 191.046 200 180 200H20C8.95431 200 0 191.046 0 180V4Z" stroke="#FF4000" stroke-width="16" mask="url(#path-2-inside-2_4_155)"/>
<rect x="52" y="28" width="96" height="36" rx="18" stroke="#FF4000" stroke-width="8"/>
<rect x="43" y="132" width="12" height="27" rx="3" fill="#FF4000"/>
<rect x="63" y="120" width="12" height="39" rx="3" fill="#FF4000"/>
<rect x="83" y="104" width="12" height="55" rx="3" fill="#FF4000"/>
<rect x="103" y="111" width="12" height="48" rx="3" fill="#FF4000"/>
<rect x="123" y="116" width="12" height="43" rx="3" fill="#FF4000"/>
<rect x="143" y="125" width="12" height="34" rx="3" fill="#FF4000"/>
</g>
<defs>
<clipPath id="clip0_4_155">
<rect width="200" height="200" fill="white"/>
</clipPath>
</defs>
</svg>
